<svg id="Layer_1" data-name="Layer 1" xmlns="http://www.w3.org/2000/svg" viewBox="0 0 512 512">
  <defs>
    <style>
      .cls-1 {
        fill: #0081a7;
      }

      .cls-2 {
        fill: #ccc;
      }

      .cls-3 {
        fill: #b3b3b3;
      }

      .cls-4, .cls-6 {
        fill: none;
      }

      .cls-4 {
        stroke: #b3b3b3;
        stroke-miterlimit: 10;
      }

      .cls-5 {
        fill: #0081a7;
      }

      .cls-6 {
        stroke: #ccc;
        stroke-linecap: round;
        stroke-linejoin: round;
        stroke-width: 0.5px;
      }
    </style>
  </defs>
  <g>
    <path class="cls-1" d="M472,256A216,216,0,1,1,40,256C40,136.72,136.73,40,256,40S472,136.72,472,256Z"/>
    <path class="cls-2" d="M365.27,308.62v85.82a186.34,186.34,0,0,1-227.12,0V308.62Z"/>
    <rect class="cls-3" x="226.48" y="244.9" width="51.16" height="63.73"/>
    <g>
      <path class="cls-2" d="M298.18,172.8v46.14a46.12,46.12,0,1,1-92.24,0V172.8a46.12,46.12,0,0,1,92.24,0Z"/>
      <polyline class="cls-4" points="205.94 195.88 229.26 195.88 229.26 132.73"/>
      <polyline class="cls-4" points="274.16 132.73 274.16 160.48 296.52 160.48"/>
      <polyline class="cls-4" points="298.19 181.13 274.16 181.13 274.16 216.23 294.47 236.53"/>
      <polyline class="cls-4" points="278.4 256.75 269.77 249.19 234.42 249.19 226.48 257.32"/>
      <polyline class="cls-4" points="205.94 213 219.97 213 219.97 231.97 212.37 242.42"/>
    </g>
    <g>
      <rect class="cls-5" x="236.28" y="227.19" width="30.85" height="13.03" rx="6.52"/>
      <polyline class="cls-6" points="239.83 233.71 244.44 233.71 245.86 230.65 248.34 236.95 249.85 233.71 252.6 233.71 255.08 230.65 257.47 236.95 259.6 233.8 264.12 233.8"/>
    </g>
    <path class="cls-2" d="M260.32,98.68a8.26,8.26,0,1,0-10.93,7.8v20.21h5.35V106.48A8.24,8.24,0,0,0,260.32,98.68Z"/>
    <path class="cls-3" d="M301.8,208.83V175.71a16.56,16.56,0,0,1,16.55,16.56h0A16.55,16.55,0,0,1,301.8,208.83Z"/>
    <path class="cls-3" d="M202.59,208.83V175.71A16.57,16.57,0,0,0,186,192.27h0A16.56,16.56,0,0,0,202.59,208.83Z"/>
    <g>
      <polyline class="cls-3" points="166.12 412.26 166.12 377.68 171.62 377.68 171.62 415"/>
      <polyline class="cls-3" points="337.14 412.39 337.14 378.03 331.64 378.03 331.64 415.08"/>
    </g>
    <polyline class="cls-4" points="138.15 352.23 183.71 352.23 214.94 308.63"/>
    <polyline class="cls-4" points="291.32 308.63 324.36 352.23 365.27 352.23"/>
    <line class="cls-4" x1="226.48" y1="431.35" x2="226.48" y2="308.62"/>
    <line class="cls-4" x1="277.65" y1="431.35" x2="277.65" y2="308.62"/>
    <line class="cls-4" x1="138.15" y1="378.03" x2="226.48" y2="378.03"/>
    <line class="cls-4" x1="277.65" y1="378.03" x2="365.27" y2="378.03"/>
    <circle class="cls-4" cx="252.06" cy="358.7" r="14.09"/>
    <circle class="cls-4" cx="252.06" cy="372.79" r="14.09"/>
    <circle class="cls-4" cx="252.06" cy="344.61" r="14.09"/>
    <line class="cls-4" x1="252.06" y1="330.52" x2="252.06" y2="386.88"/>
  </g>
</svg>
