<svg id="Layer_1" data-name="Layer 1" xmlns="http://www.w3.org/2000/svg" viewBox="0 0 512 512">
  <defs>
    <style>
      .cls-1 {
        fill: #0081a7;
      }

      .cls-2 {
        fill: #ffb703;
      }

      .cls-3 {
        fill: #ffc599;
      }

      .cls-4 {
        fill: #fb8500;
      }

      .cls-5 {
        fill: #ffcfae;
      }

      .cls-6 {
        fill: none;
        stroke: #0081a7;
        stroke-linecap: round;
        stroke-miterlimit: 10;
        stroke-width: 2px;
      }

      .cls-7 {
        fill: #e5a005;
      }
    </style>
  </defs>
  <g>
    <path class="cls-1" d="M472,256A216,216,0,1,1,40,256C40,136.72,136.73,40,256,40S472,136.72,472,256Z"/>
    <path class="cls-2" d="M369.56,394.44h0a186.34,186.34,0,0,1-227.12,0h0a76,76,0,0,1,60-74.3L256,308.62l53.55,11.52A76,76,0,0,1,369.56,394.44Z"/>
    <path class="cls-3" d="M230.42,267.86h51.16a0,0,0,0,1,0,0v45.93A25.58,25.58,0,0,1,256,339.37h0a25.58,25.58,0,0,1-25.58-25.58V267.86A0,0,0,0,1,230.42,267.86Z"/>
    <path class="cls-4" d="M350.78,184.71A94.79,94.79,0,0,1,295.7,270.8a45.86,45.86,0,0,0,6.42-23.48V201.18a46.12,46.12,0,0,0-92.24,0v46.14a45.86,45.86,0,0,0,6.42,23.48,94.79,94.79,0,0,1-55.08-86.09S158.94,84.13,256,84.13C350.78,84.13,350.78,184.71,350.78,184.71Z"/>
    <path class="cls-5" d="M302.12,201.18v46.14a46.12,46.12,0,1,1-92.24,0V201.18a46.12,46.12,0,0,1,92.24,0Z"/>
    <path class="cls-6" d="M246.83,269.71h0a21.35,21.35,0,0,0,18.34,0h0"/>
    <g>
      <path class="cls-7" d="M173.7,413.93V409a5.49,5.49,0,0,1,5.49-5.49h0v13"/>
      <path class="cls-7" d="M338,414.06v-4.7a5.5,5.5,0,0,0-5.5-5.5h0v12.79"/>
    </g>
  </g>
</svg>
